<svg width="102" height="230" viewBox="0 0 102 230" fill="none" xmlns="http://www.w3.org/2000/svg">
<g filter="url(#filter0_dii)">
<path d="M74.3506 15.6509C72.6748 12.7921 68.9895 11.8205 66.218 13.637C50.1658 24.1581 36.8452 38.3946 27.4079 55.174C16.9887 73.6994 11.6767 94.6597 12.0152 115.911C12.3538 137.163 18.3308 157.944 29.3349 176.128C39.3019 192.598 53.0691 206.403 69.4484 216.408C72.2763 218.135 75.9288 217.046 77.5126 214.136L88.9837 193.054C90.5675 190.144 89.4781 186.518 86.6878 184.731C75.8924 177.815 66.7995 168.504 60.1344 157.49C52.4315 144.761 48.2477 130.214 48.0107 115.338C47.7737 100.462 51.4921 85.7896 58.7856 72.8218C65.0965 61.6011 73.8881 52.0049 84.4578 44.7487C87.1897 42.8733 88.163 39.2148 86.4873 36.356L74.3506 15.6509Z" fill="url(#paint0_radial)" fill-opacity="0.5"/>
</g>
<defs>
<filter id="filter0_dii" x="0" y="0.715454" width="101.715" height="228.518" filterUnits="userSpaceOnUse" color-interpolation-filters="sRGB">
<feFlood flood-opacity="0" result="BackgroundImageFix"/>
<feColorMatrix in="SourceAlpha" type="matrix" values="0 0 0 0 0 0 0 0 0 0 0 0 0 0 0 0 0 0 127 0"/>
<feMorphology radius="8" operator="erode" in="SourceAlpha" result="effect1_dropShadow"/>
<feOffset/>
<feGaussianBlur stdDeviation="10"/>
<feColorMatrix type="matrix" values="0 0 0 0 0.375 0 0 0 0 0.375 0 0 0 0 0.375 0 0 0 0.2 0"/>
<feBlend mode="normal" in2="BackgroundImageFix" result="effect1_dropShadow"/>
<feBlend mode="normal" in="SourceGraphic" in2="effect1_dropShadow" result="shape"/>
<feColorMatrix in="SourceAlpha" type="matrix" values="0 0 0 0 0 0 0 0 0 0 0 0 0 0 0 0 0 0 127 0" result="hardAlpha"/>
<feOffset/>
<feGaussianBlur stdDeviation="10"/>
<feComposite in2="hardAlpha" operator="arithmetic" k2="-1" k3="1"/>
<feColorMatrix type="matrix" values="0 0 0 0 0.15 0 0 0 0 0.15 0 0 0 0 0.15 0 0 0 0.9 0"/>
<feBlend mode="normal" in2="shape" result="effect2_innerShadow"/>
<feColorMatrix in="SourceAlpha" type="matrix" values="0 0 0 0 0 0 0 0 0 0 0 0 0 0 0 0 0 0 127 0" result="hardAlpha"/>
<feOffset dx="-1" dy="1"/>
<feGaussianBlur stdDeviation="0.5"/>
<feComposite in2="hardAlpha" operator="arithmetic" k2="-1" k3="1"/>
<feColorMatrix type="matrix" values="0 0 0 0 1 0 0 0 0 1 0 0 0 0 1 0 0 0 0.5 0"/>
<feBlend mode="normal" in2="effect2_innerShadow" result="effect3_innerShadow"/>
</filter>
<radialGradient id="paint0_radial" cx="0" cy="0" r="1" gradientUnits="userSpaceOnUse" gradientTransform="translate(131.624 114.376) rotate(90) scale(119.624)">
<stop offset="0.71875" stop-color="#4D4D4D"/>
<stop offset="1" stop-color="#382900"/>
</radialGradient>
</defs>
</svg>
