<svg width="238" height="157" viewBox="0 0 238 157" fill="none" xmlns="http://www.w3.org/2000/svg">
<g filter="url(#filter0_ii)">
<path d="M1.24775 133.254C-0.278076 136.195 0.865341 139.827 3.8607 141.245C26.6777 152.04 51.7056 157.435 76.9973 156.973C104.291 156.474 131.028 149.17 154.785 135.723C178.542 122.276 198.566 103.112 213.042 79.9678C226.456 58.5215 234.713 34.2867 237.201 9.16769C237.528 5.87013 235.002 3.02026 231.695 2.81444L194.567 0.503693C191.259 0.297852 188.428 2.81512 188.049 6.10716C186.102 23.051 180.4 39.375 171.329 53.8774C161.196 70.0781 147.179 83.4931 130.549 92.9059C113.92 102.319 95.2037 107.432 76.0981 107.781C58.9953 108.093 42.0649 104.58 26.5355 97.5283C23.5183 96.1582 19.9026 97.2904 18.3768 100.232L1.24775 133.254Z" fill="url(#paint0_radial)" fill-opacity="0.25"/>
</g>
<defs>
<filter id="filter0_ii" x="-0.42688" y="0.491913" width="237.656" height="157.508" filterUnits="userSpaceOnUse" color-interpolation-filters="sRGB">
<feFlood flood-opacity="0" result="BackgroundImageFix"/>
<feBlend mode="normal" in="SourceGraphic" in2="BackgroundImageFix" result="shape"/>
<feColorMatrix in="SourceAlpha" type="matrix" values="0 0 0 0 0 0 0 0 0 0 0 0 0 0 0 0 0 0 127 0" result="hardAlpha"/>
<feOffset/>
<feGaussianBlur stdDeviation="10"/>
<feComposite in2="hardAlpha" operator="arithmetic" k2="-1" k3="1"/>
<feColorMatrix type="matrix" values="0 0 0 0 0.4125 0 0 0 0 0.4125 0 0 0 0 0.4125 0 0 0 0.2 0"/>
<feBlend mode="normal" in2="shape" result="effect1_innerShadow"/>
<feColorMatrix in="SourceAlpha" type="matrix" values="0 0 0 0 0 0 0 0 0 0 0 0 0 0 0 0 0 0 127 0" result="hardAlpha"/>
<feOffset dx="-1" dy="1"/>
<feGaussianBlur stdDeviation="0.5"/>
<feComposite in2="hardAlpha" operator="arithmetic" k2="-1" k3="1"/>
<feColorMatrix type="matrix" values="0 0 0 0 1 0 0 0 0 1 0 0 0 0 1 0 0 0 0.5 0"/>
<feBlend mode="normal" in2="effect1_innerShadow" result="effect2_innerShadow"/>
</filter>
<radialGradient id="paint0_radial" cx="0" cy="0" r="1" gradientUnits="userSpaceOnUse" gradientTransform="translate(73.4859 -6.48589) rotate(90) scale(163.486)">
<stop offset="0.828125" stop-color="#A6A6A6" stop-opacity="0.69"/>
<stop offset="0.921875" stop-color="#CBCBCB" stop-opacity="0.2"/>
</radialGradient>
</defs>
</svg>
