<svg width="156" height="62" viewBox="0 0 156 62" fill="none" xmlns="http://www.w3.org/2000/svg">
<g filter="url(#filter0_ii)">
<path d="M154.6 25.8101C156.206 22.9119 155.164 19.2494 152.209 17.75C129.24 6.09516 103.821 0.00121904 78.0078 1.82828e-07C52.1948 -0.00121867 26.7751 6.09032 3.80505 17.743C0.849846 19.2421 -0.193115 22.9045 1.41313 25.8029L19.445 58.3404C21.0512 61.2388 24.6968 62.271 27.6751 60.8184C43.3277 53.184 60.5379 49.1992 78.0054 49.2C95.4729 49.2008 112.683 53.1873 128.335 60.8231C131.313 62.276 134.958 61.2442 136.565 58.3459L154.6 25.8101Z" fill="url(#paint0_radial)" fill-opacity="0.8"/>
</g>
<defs>
<filter id="filter0_ii" x="-0.339233" y="0" width="155.692" height="62.4767" filterUnits="userSpaceOnUse" color-interpolation-filters="sRGB">
<feFlood flood-opacity="0" result="BackgroundImageFix"/>
<feBlend mode="normal" in="SourceGraphic" in2="BackgroundImageFix" result="shape"/>
<feColorMatrix in="SourceAlpha" type="matrix" values="0 0 0 0 0 0 0 0 0 0 0 0 0 0 0 0 0 0 127 0" result="hardAlpha"/>
<feOffset/>
<feGaussianBlur stdDeviation="10"/>
<feComposite in2="hardAlpha" operator="arithmetic" k2="-1" k3="1"/>
<feColorMatrix type="matrix" values="0 0 0 0 1 0 0 0 0 0.69 0 0 0 0 0.225 0 0 0 0.9 0"/>
<feBlend mode="normal" in2="shape" result="effect1_innerShadow"/>
<feColorMatrix in="SourceAlpha" type="matrix" values="0 0 0 0 0 0 0 0 0 0 0 0 0 0 0 0 0 0 127 0" result="hardAlpha"/>
<feOffset dx="-1" dy="1"/>
<feGaussianBlur stdDeviation="0.5"/>
<feComposite in2="hardAlpha" operator="arithmetic" k2="-1" k3="1"/>
<feColorMatrix type="matrix" values="0 0 0 0 1 0 0 0 0 1 0 0 0 0 1 0 0 0 0.5 0"/>
<feBlend mode="normal" in2="effect1_innerShadow" result="effect2_innerShadow"/>
</filter>
<radialGradient id="paint0_radial" cx="0" cy="0" r="1" gradientUnits="userSpaceOnUse" gradientTransform="translate(77.4859 164.514) rotate(90) scale(163.486)">
<stop offset="0.8125" stop-color="#FFB800" stop-opacity="0.7"/>
<stop offset="1" stop-color="#FFEF99" stop-opacity="0.4"/>
</radialGradient>
</defs>
</svg>
